<svg width="121" height="76" viewBox="0 0 121 76" fill="none" xmlns="http://www.w3.org/2000/svg">
<rect x="1" y="1" width="119" height="74" fill="white" stroke="#0480CD" stroke-width="2"/>
<path d="M13.6709 23V14.6191H10.6357V13.1357H18.4766V14.6191H15.4346V23H13.6709ZM21.1623 23V13.1357H22.9259V17.2373H27.7248V13.1357H29.4816V23H27.7248V18.7207H22.9259V23H21.1623ZM32.762 23V13.1357H39.1468V14.6191H34.5257V17.292H38.8939V18.6934H34.5257V21.5166H39.1468V23H32.762Z" fill="black"/>
<path d="M11.7383 45V30.9082H17.627C20.3027 30.9082 21.9141 32.2559 21.9141 34.4141V34.4336C21.9141 35.9082 20.8203 37.2168 19.4043 37.4414V37.6172C21.2988 37.793 22.6074 39.1602 22.6074 40.9863V41.0059C22.6074 43.4766 20.7715 45 17.7637 45H11.7383ZM17.0117 32.8711H14.2578V36.8457H16.6895C18.4766 36.8457 19.4238 36.1523 19.4238 34.873V34.8535C19.4238 33.6035 18.5352 32.8711 17.0117 32.8711ZM17.0898 38.6328H14.2578V43.0371H17.1875C19.043 43.0371 20.0293 42.2656 20.0293 40.8301V40.8105C20.0293 39.3848 19.0137 38.6328 17.0898 38.6328ZM26.5516 45V30.9082H32.2449C35.2723 30.9082 37.0887 32.5977 37.0887 35.2832V35.3027C37.0887 37.168 36.1023 38.7109 34.4324 39.3164L37.5086 45H34.6277L31.8641 39.6973H29.0711V45H26.5516ZM29.0711 37.7637H31.9812C33.573 37.7637 34.5008 36.875 34.5008 35.3613V35.3418C34.5008 33.8672 33.534 32.9492 31.9324 32.9492H29.0711V37.7637ZM40.3004 45L45.3004 30.9082H48.1422L53.1422 45H50.5055L49.3238 41.3574H44.109L42.9371 45H40.3004ZM46.6383 33.5254L44.7437 39.4141H48.6988L46.8043 33.5254H46.6383ZM56.7641 45V30.9082H62.0473C66.2367 30.9082 68.6781 33.4668 68.6781 37.8809V37.9004C68.6781 42.4121 66.266 45 62.0473 45H56.7641ZM59.2836 42.8809H61.7152C64.518 42.8809 66.1098 41.1035 66.1098 37.9395V37.9199C66.1098 34.8242 64.4789 33.0273 61.7152 33.0273H59.2836V42.8809ZM72.7687 45V30.9082H75.2883V42.8809H81.7531V45H72.7687ZM85.668 45V30.9082H94.7891V33.0273H88.1875V36.8457H94.4277V38.8477H88.1875V42.8809H94.7891V45H85.668ZM103.011 45V39.4434L98.0691 30.9082H100.823L104.182 36.9531H104.348L107.708 30.9082H110.462L105.52 39.4434V45H103.011Z" fill="black"/>
<path d="M16.2109 65.2812C12.9453 65.2812 10.9141 63.0078 10.9141 59.3672V59.3516C10.9141 55.75 12.9688 53.4453 16.1797 53.4453C18.7812 53.4453 20.6562 54.9375 21.0391 57.1406L21.0469 57.2188H19.0469L19.0234 57.1406C18.6562 55.9062 17.625 55.1875 16.1797 55.1875C14.2109 55.1875 12.9688 56.7891 12.9688 59.3359V59.3516C12.9688 61.9375 14.2344 63.5391 16.2422 63.5391C17.9609 63.5391 19.1328 62.4688 19.1562 60.8672L19.1641 60.6328H16.4609V59.0938H21.1406V60.5C21.1406 63.4141 19.2188 65.2812 16.2109 65.2812ZM24.4444 65V53.7266H28.9991C31.4209 53.7266 32.8741 55.0781 32.8741 57.2266V57.2422C32.8741 58.7344 32.085 59.9688 30.7491 60.4531L33.21 65H30.9053L28.6944 60.7578H26.46V65H24.4444ZM26.46 59.2109H28.7881C30.0616 59.2109 30.8038 58.5 30.8038 57.2891V57.2734C30.8038 56.0938 30.0303 55.3594 28.7491 55.3594H26.46V59.2109ZM41.1388 65.2812C37.8341 65.2812 35.8028 62.9922 35.8028 59.3672V59.3516C35.8028 55.7188 37.8653 53.4453 41.1388 53.4453C44.42 53.4453 46.4669 55.7188 46.4669 59.3516V59.3672C46.4669 62.9922 44.4278 65.2812 41.1388 65.2812ZM41.1388 63.5391C43.1466 63.5391 44.4122 61.8984 44.4122 59.3672V59.3516C44.4122 56.8047 43.1388 55.1875 41.1388 55.1875C39.1388 55.1875 37.8575 56.8047 37.8575 59.3516V59.3672C37.8575 61.8984 39.1075 63.5391 41.1388 63.5391ZM54.3644 65.2812C51.5128 65.2812 49.7316 63.6016 49.7316 61.1172V53.7266H51.7472V60.9531C51.7472 62.5078 52.6925 63.5391 54.3722 63.5391C56.0441 63.5391 56.9816 62.5078 56.9816 60.9531V53.7266H58.9972V61.1172C58.9972 63.6016 57.2316 65.2812 54.3644 65.2812ZM62.7306 65V53.7266H67.2306C69.5197 53.7266 71.0666 55.2344 71.0666 57.4922V57.5078C71.0666 59.7578 69.5197 61.2734 67.2306 61.2734H64.7463V65H62.7306ZM66.7384 55.375H64.7463V59.6484H66.7384C68.1838 59.6484 69.0275 58.8672 69.0275 57.5156V57.5C69.0275 56.1484 68.1838 55.375 66.7384 55.375Z" fill="black"/>
</svg>
