<svg width="87" height="50" viewBox="0 0 87 50" fill="none" xmlns="http://www.w3.org/2000/svg">
<rect x="0.5" y="0.5" width="86" height="49" stroke="#0480CD"/>
<path d="M6.72949 14V7.74512H4.45898V6.9541H9.87891V7.74512H7.6084V14H6.72949ZM11.6363 14V6.9541H12.5152V10.001H16.3824V6.9541H17.2613V14H16.3824V10.792H12.5152V14H11.6363ZM19.4582 14V6.9541H23.8234V7.74512H20.3371V10.0059H23.6428V10.7871H20.3371V13.209H23.8234V14H19.4582Z" fill="white"/>
<path d="M6.39844 30V28.4375H9.75C10.4948 28.4375 11.0599 28.2865 11.4453 27.9844C11.8307 27.6771 12.0234 27.237 12.0234 26.6641V26.6484C12.0234 26.2682 11.9349 25.9479 11.7578 25.6875C11.5807 25.4271 11.3151 25.2318 10.9609 25.1016C10.612 24.9714 10.1797 24.9062 9.66406 24.9062H6.39844V23.4766H9.35156C10.0651 23.4766 10.6068 23.3411 10.9766 23.0703C11.3516 22.7995 11.5391 22.4089 11.5391 21.8984V21.8828C11.5391 21.3828 11.3698 20.9922 11.0312 20.7109C10.6927 20.4297 10.2188 20.2891 9.60938 20.2891H6.39844V18.7266H10.0938C10.8125 18.7266 11.4271 18.8411 11.9375 19.0703C12.4479 19.2943 12.8411 19.6172 13.1172 20.0391C13.3932 20.4557 13.5312 20.9531 13.5312 21.5312V21.5469C13.5312 21.9427 13.4401 22.3125 13.2578 22.6562C13.0807 23 12.8411 23.2865 12.5391 23.5156C12.2422 23.7448 11.9036 23.8906 11.5234 23.9531V24.0938C12.0286 24.1406 12.4714 24.2865 12.8516 24.5312C13.237 24.7708 13.5365 25.0859 13.75 25.4766C13.9688 25.8672 14.0781 26.3047 14.0781 26.7891V26.8047C14.0781 27.4609 13.9219 28.0286 13.6094 28.5078C13.3021 28.987 12.8594 29.3568 12.2812 29.6172C11.7031 29.8724 11.013 30 10.2109 30H6.39844ZM5.39062 30V18.7266H7.40625V30H5.39062ZM16.9213 30V18.7266H21.4759C22.2832 18.7266 22.9759 18.8698 23.5541 19.1562C24.1322 19.4427 24.5749 19.8464 24.8822 20.3672C25.1895 20.888 25.3431 21.5078 25.3431 22.2266V22.2422C25.3431 22.987 25.1556 23.6484 24.7806 24.2266C24.4108 24.7995 23.8926 25.2057 23.2259 25.4453L25.6869 30H23.39L21.1713 25.7578C21.1608 25.7578 21.1452 25.7578 21.1244 25.7578C21.1035 25.7578 21.0853 25.7578 21.0697 25.7578H18.9369V30H16.9213ZM18.9369 24.2109H21.265C21.9056 24.2109 22.403 24.0417 22.7572 23.7031C23.1114 23.3646 23.2884 22.8932 23.2884 22.2891V22.2734C23.2884 21.6849 23.1035 21.2188 22.7338 20.875C22.3692 20.526 21.8666 20.3516 21.2259 20.3516H18.9369V24.2109ZM27.6003 30L31.6003 18.7266H33.2722V20.8203H32.6706L29.7097 30H27.6003ZM29.6159 27.0859L30.1394 25.5312H35.3113L35.8347 27.0859H29.6159ZM35.7644 30L32.8034 20.8203V18.7266H33.8659L37.8738 30H35.7644ZM40.4512 30V18.7266H44.6778C45.7976 18.7266 46.7507 18.9453 47.5372 19.3828C48.3289 19.8203 48.933 20.4557 49.3497 21.2891C49.7716 22.1224 49.9825 23.1276 49.9825 24.3047V24.3203C49.9825 25.5234 49.7742 26.5495 49.3575 27.3984C48.9408 28.2422 48.3367 28.888 47.545 29.3359C46.7585 29.7786 45.8028 30 44.6778 30H40.4512ZM42.4669 28.3047H44.4122C45.157 28.3047 45.7924 28.151 46.3184 27.8438C46.8445 27.5365 47.2429 27.0885 47.5137 26.5C47.7898 25.9115 47.9278 25.1953 47.9278 24.3516V24.3359C47.9278 23.513 47.7872 22.8099 47.5059 22.2266C47.2299 21.638 46.8289 21.1901 46.3028 20.8828C45.7768 20.5755 45.1466 20.4219 44.4122 20.4219H42.4669V28.3047ZM52.935 30V18.7266H54.9506V28.3047H60.1147V30H52.935ZM62.9344 30V18.7266H70.2313V20.4219H64.95V23.4766H69.9422V25.0781H64.95V28.3047H70.2313V30H62.9344ZM76.4884 30V25.5547L72.5353 18.7266H74.7384L77.4259 23.5625H77.5587L80.2462 18.7266H82.4494L78.4962 25.5547V30H76.4884Z" fill="white"/>
<path d="M9.43457 45.2461C8.71908 45.2461 8.0765 45.1276 7.50684 44.8906C6.93717 44.6491 6.44954 44.3027 6.04395 43.8516C5.6429 43.4004 5.33529 42.8581 5.12109 42.2246C4.9069 41.5866 4.7998 40.8688 4.7998 40.0713V40.0576C4.7998 39.0049 4.98893 38.0934 5.36719 37.3232C5.74544 36.5485 6.27865 35.9492 6.9668 35.5254C7.65951 35.1016 8.47298 34.8896 9.40723 34.8896C10.1683 34.8896 10.8473 35.0264 11.4443 35.2998C12.0459 35.5687 12.5381 35.9469 12.9209 36.4346C13.3037 36.9176 13.5475 37.4805 13.6523 38.123L13.666 38.1914H11.916L11.8955 38.123C11.736 37.5807 11.4398 37.1615 11.0068 36.8652C10.5739 36.5645 10.0407 36.4141 9.40723 36.4141C8.83301 36.4141 8.33398 36.5622 7.91016 36.8584C7.49089 37.1546 7.16732 37.5739 6.93945 38.1162C6.71159 38.6585 6.59766 39.3011 6.59766 40.0439V40.0576C6.59766 40.6227 6.66374 41.1309 6.7959 41.582C6.92806 42.0332 7.11719 42.4183 7.36328 42.7373C7.61393 43.0563 7.91471 43.3001 8.26562 43.4688C8.62109 43.6374 9.01986 43.7217 9.46191 43.7217C9.96322 43.7217 10.403 43.6237 10.7812 43.4277C11.1641 43.2318 11.4626 42.9583 11.6768 42.6074C11.8955 42.2565 12.0094 41.8486 12.0186 41.3838V41.1787H9.65332V39.832H13.7412V41.0625C13.7412 41.7005 13.641 42.277 13.4404 42.792C13.2399 43.307 12.9505 43.7467 12.5723 44.1113C12.1986 44.4759 11.7451 44.7562 11.2119 44.9521C10.6833 45.1481 10.0908 45.2461 9.43457 45.2461ZM16.3588 45V35.1357H20.3442C21.0506 35.1357 21.6567 35.2611 22.1625 35.5117C22.6684 35.7624 23.0558 36.1156 23.3246 36.5713C23.5935 37.027 23.728 37.5693 23.728 38.1982V38.2119C23.728 38.8636 23.5639 39.4424 23.2358 39.9482C22.9122 40.4495 22.4588 40.805 21.8754 41.0146L24.0288 45H22.019L20.0776 41.2881C20.0685 41.2881 20.0548 41.2881 20.0366 41.2881C20.0183 41.2881 20.0024 41.2881 19.9887 41.2881H18.1225V45H16.3588ZM18.1225 39.9346H20.1596C20.7202 39.9346 21.1554 39.7865 21.4653 39.4902C21.7752 39.194 21.9301 38.7816 21.9301 38.2529V38.2393C21.9301 37.7243 21.7683 37.3164 21.4448 37.0156C21.1258 36.7103 20.686 36.5576 20.1254 36.5576H18.1225V39.9346ZM30.6864 45.2461C29.7203 45.2461 28.8886 45.0365 28.1913 44.6172C27.4986 44.1934 26.9631 43.5941 26.5848 42.8193C26.2066 42.0446 26.0175 41.1286 26.0175 40.0713V40.0576C26.0175 38.9958 26.2066 38.0798 26.5848 37.3096C26.9677 36.5348 27.5077 35.9378 28.205 35.5186C28.9068 35.0993 29.7339 34.8896 30.6864 34.8896C31.6434 34.8896 32.4706 35.0993 33.1679 35.5186C33.8651 35.9378 34.4029 36.5348 34.7811 37.3096C35.1594 38.0843 35.3485 39.0003 35.3485 40.0576V40.0713C35.3485 41.1286 35.1594 42.0446 34.7811 42.8193C34.4074 43.5941 33.872 44.1934 33.1747 44.6172C32.4774 45.0365 31.648 45.2461 30.6864 45.2461ZM30.6864 43.7217C31.2743 43.7217 31.7824 43.5713 32.2108 43.2705C32.6392 42.9697 32.9696 42.5459 33.202 41.999C33.439 41.4521 33.5575 40.8096 33.5575 40.0713V40.0576C33.5575 39.3148 33.439 38.6722 33.202 38.1299C32.9696 37.583 32.6392 37.1615 32.2108 36.8652C31.7824 36.5645 31.2743 36.4141 30.6864 36.4141C30.1031 36.4141 29.5949 36.5645 29.162 36.8652C28.7336 37.1615 28.4009 37.583 28.1639 38.1299C27.9315 38.6722 27.8153 39.3148 27.8153 40.0576V40.0713C27.8153 40.8096 27.9292 41.4521 28.1571 41.999C28.3895 42.5459 28.7199 42.9697 29.1483 43.2705C29.5813 43.5713 30.094 43.7217 30.6864 43.7217ZM41.9788 45.2461C41.1494 45.2461 40.4316 45.0934 39.8255 44.7881C39.2194 44.4827 38.75 44.0566 38.4173 43.5098C38.0892 42.9629 37.9251 42.3271 37.9251 41.6025V35.1357H39.682V41.459C39.682 41.9102 39.7708 42.3066 39.9486 42.6484C40.1308 42.9857 40.3929 43.25 40.7347 43.4414C41.0765 43.6283 41.4935 43.7217 41.9857 43.7217C42.4733 43.7217 42.888 43.6283 43.2298 43.4414C43.5716 43.25 43.8314 42.9857 44.0091 42.6484C44.1868 42.3066 44.2757 41.9102 44.2757 41.459V35.1357H46.0325V41.6025C46.0325 42.3271 45.8685 42.9629 45.5404 43.5098C45.2122 44.0566 44.7451 44.4827 44.139 44.7881C43.5374 45.0934 42.8174 45.2461 41.9788 45.2461ZM49.9011 41.7393V40.3174H52.5261C53.1596 40.3174 53.6518 40.1556 54.0027 39.832C54.3536 39.5039 54.5291 39.0436 54.5291 38.4512V38.4375C54.5291 37.8405 54.3536 37.3802 54.0027 37.0566C53.6518 36.7331 53.1596 36.5713 52.5261 36.5713H49.9011V35.1357H52.9568C53.6267 35.1357 54.2123 35.2725 54.7136 35.5459C55.2149 35.8193 55.6069 36.2044 55.8894 36.7012C56.172 37.1934 56.3132 37.7699 56.3132 38.4307V38.4443C56.3132 39.1006 56.172 39.6771 55.8894 40.1738C55.6069 40.666 55.2149 41.0511 54.7136 41.3291C54.2123 41.6025 53.6267 41.7393 52.9568 41.7393H49.9011ZM49.0193 45V35.1357H50.783V45H49.0193Z" fill="white"/>
</svg>
